<mxfile host="app.diagrams.net" agent="Mozilla/5.0 (Windows NT 10.0; Win64; x64) AppleWebKit/537.36 (KHTML, like Gecko) Chrome/132.0.0.0 Safari/537.36 OPR/117.0.0.0" version="26.2.14">
  <diagram name="Page-1" id="2YBvvXClWsGukQMizWep">
    <mxGraphModel dx="717" dy="430" grid="0" gridSize="10" guides="1" tooltips="1" connect="1" arrows="1" fold="1" page="1" pageScale="1" pageWidth="850" pageHeight="1100" math="0" shadow="0">
      <root>
        <mxCell id="0" />
        <mxCell id="1" parent="0" />
        <mxCell id="HXRdN1SDrOyEm4HGrO3o-1" value=":Système de Gestion" style="shape=umlLifeline;perimeter=lifelinePerimeter;whiteSpace=wrap;html=1;container=0;dropTarget=0;collapsible=0;recursiveResize=0;outlineConnect=0;portConstraint=eastwest;newEdgeStyle={&quot;edgeStyle&quot;:&quot;elbowEdgeStyle&quot;,&quot;elbow&quot;:&quot;vertical&quot;,&quot;curved&quot;:0,&quot;rounded&quot;:0};fillColor=light-dark(#FFFFFF, #ffffff);strokeColor=light-dark(#000000,#000000);labelBackgroundColor=none;fontColor=light-dark(#000000,#000000);" vertex="1" parent="1">
          <mxGeometry x="406" y="86" width="123" height="602" as="geometry" />
        </mxCell>
        <mxCell id="HXRdN1SDrOyEm4HGrO3o-2" value="" style="shape=umlLifeline;perimeter=lifelinePerimeter;whiteSpace=wrap;html=1;container=1;dropTarget=0;collapsible=0;recursiveResize=0;outlineConnect=0;portConstraint=eastwest;newEdgeStyle={&quot;curved&quot;:0,&quot;rounded&quot;:0};participant=umlActor;fillColor=light-dark(#FFFFFF,#000000);strokeColor=light-dark(#000000,#000000);" vertex="1" parent="1">
          <mxGeometry x="195" y="97" width="20" height="587" as="geometry" />
        </mxCell>
        <mxCell id="HXRdN1SDrOyEm4HGrO3o-3" value="" style="html=1;points=[[0,0,0,0,5],[0,1,0,0,-5],[1,0,0,0,5],[1,1,0,0,-5]];perimeter=orthogonalPerimeter;outlineConnect=0;targetShapes=umlLifeline;portConstraint=eastwest;newEdgeStyle={&quot;curved&quot;:0,&quot;rounded&quot;:0};fillColor=light-dark(#FFFFFF,#FFFFFF);strokeColor=light-dark(#000000,#000000);" vertex="1" parent="HXRdN1SDrOyEm4HGrO3o-2">
          <mxGeometry x="5" y="64" width="10" height="32" as="geometry" />
        </mxCell>
        <mxCell id="HXRdN1SDrOyEm4HGrO3o-6" value="" style="html=1;points=[[0,0,0,0,5],[0,1,0,0,-5],[1,0,0,0,5],[1,1,0,0,-5]];perimeter=orthogonalPerimeter;outlineConnect=0;targetShapes=umlLifeline;portConstraint=eastwest;newEdgeStyle={&quot;curved&quot;:0,&quot;rounded&quot;:0};fillColor=light-dark(#FFFFFF,#FFFFFF);strokeColor=light-dark(#000000,#000000);" vertex="1" parent="HXRdN1SDrOyEm4HGrO3o-2">
          <mxGeometry x="4" y="513" width="10" height="27" as="geometry" />
        </mxCell>
        <mxCell id="HXRdN1SDrOyEm4HGrO3o-4" value="" style="html=1;points=[[0,0,0,0,5],[0,1,0,0,-5],[1,0,0,0,5],[1,1,0,0,-5]];perimeter=orthogonalPerimeter;outlineConnect=0;targetShapes=umlLifeline;portConstraint=eastwest;newEdgeStyle={&quot;curved&quot;:0,&quot;rounded&quot;:0};fillColor=light-dark(#FFFFFF,#FFFFFF);strokeColor=light-dark(#000000,#000000);container=0;" vertex="1" parent="HXRdN1SDrOyEm4HGrO3o-2">
          <mxGeometry x="5" y="158" width="10" height="19" as="geometry" />
        </mxCell>
        <mxCell id="HXRdN1SDrOyEm4HGrO3o-5" value="" style="html=1;points=[[0,0,0,0,5],[0,1,0,0,-5],[1,0,0,0,5],[1,1,0,0,-5]];perimeter=orthogonalPerimeter;outlineConnect=0;targetShapes=umlLifeline;portConstraint=eastwest;newEdgeStyle={&quot;curved&quot;:0,&quot;rounded&quot;:0};fillColor=light-dark(#FFFFFF,#FFFFFF);strokeColor=light-dark(#000000,#000000);container=0;" vertex="1" parent="HXRdN1SDrOyEm4HGrO3o-2">
          <mxGeometry x="5" y="190" width="10" height="31" as="geometry" />
        </mxCell>
        <mxCell id="HXRdN1SDrOyEm4HGrO3o-7" value="" style="endArrow=block;endFill=1;endSize=12;html=1;rounded=0;strokeColor=light-dark(#000000,#000000);exitX=1;exitY=0;exitDx=0;exitDy=5;exitPerimeter=0;" edge="1" parent="1">
          <mxGeometry width="160" relative="1" as="geometry">
            <mxPoint x="209" y="163" as="sourcePoint" />
            <mxPoint x="463" y="163" as="targetPoint" />
          </mxGeometry>
        </mxCell>
        <mxCell id="HXRdN1SDrOyEm4HGrO3o-8" value="&lt;font style=&quot;font-size: 9px;&quot;&gt;&lt;b&gt;1: Demande d&#39;authentification()&lt;/b&gt;&lt;/font&gt;" style="text;html=1;align=center;verticalAlign=middle;whiteSpace=wrap;rounded=0;" vertex="1" parent="1">
          <mxGeometry x="249" y="142" width="145" height="22" as="geometry" />
        </mxCell>
        <mxCell id="HXRdN1SDrOyEm4HGrO3o-9" value="" style="endArrow=open;html=1;rounded=0;strokeColor=light-dark(#000000,#000000);dashed=1;strokeWidth=1;endFill=0;" edge="1" parent="1">
          <mxGeometry width="50" height="50" relative="1" as="geometry">
            <mxPoint x="463" y="257" as="sourcePoint" />
            <mxPoint x="208" y="257" as="targetPoint" />
          </mxGeometry>
        </mxCell>
        <mxCell id="HXRdN1SDrOyEm4HGrO3o-10" value="&lt;font style=&quot;color: light-dark(rgb(0, 0, 0), rgb(0, 0, 0)); font-size: 9px;&quot;&gt;&lt;b&gt;2: Formulaire d&#39;authentification()&lt;/b&gt;&lt;/font&gt;" style="text;html=1;align=center;verticalAlign=middle;whiteSpace=wrap;rounded=0;container=0;" vertex="1" parent="1">
          <mxGeometry x="239" y="234" width="161" height="22" as="geometry" />
        </mxCell>
        <mxCell id="HXRdN1SDrOyEm4HGrO3o-11" value="" style="endArrow=block;endFill=1;endSize=12;html=1;rounded=0;strokeColor=light-dark(#000000,#000000);" edge="1" parent="1">
          <mxGeometry width="160" relative="1" as="geometry">
            <mxPoint x="210" y="290" as="sourcePoint" />
            <mxPoint x="467" y="290" as="targetPoint" />
          </mxGeometry>
        </mxCell>
        <mxCell id="HXRdN1SDrOyEm4HGrO3o-12" value="&lt;font style=&quot;color: light-dark(rgb(0, 0, 0), rgb(0, 0, 0)); font-size: 9px;&quot;&gt;&lt;b&gt;3:Soumettre le formulaire remplit ()&lt;/b&gt;&lt;/font&gt;" style="text;html=1;align=center;verticalAlign=middle;whiteSpace=wrap;rounded=0;container=0;" vertex="1" parent="1">
          <mxGeometry x="246" y="271" width="159" height="17" as="geometry" />
        </mxCell>
        <mxCell id="HXRdN1SDrOyEm4HGrO3o-13" value="&lt;font style=&quot;font-size: 9px;&quot;&gt;:Visiteur&lt;/font&gt;" style="text;html=1;align=center;verticalAlign=middle;whiteSpace=wrap;rounded=0;fillColor=#FFFFFF;" vertex="1" parent="1">
          <mxGeometry x="175" y="133" width="60" height="21" as="geometry" />
        </mxCell>
        <mxCell id="HXRdN1SDrOyEm4HGrO3o-14" value="&lt;b&gt;loop[1:3]&lt;/b&gt;" style="shape=umlFrame;whiteSpace=wrap;html=1;pointerEvents=0;container=0;" vertex="1" parent="1">
          <mxGeometry x="61" y="201" width="613" height="346" as="geometry" />
        </mxCell>
        <mxCell id="HXRdN1SDrOyEm4HGrO3o-15" value="&lt;b&gt;[tant que Information incorrecte]&lt;/b&gt;" style="text;html=1;align=center;verticalAlign=middle;whiteSpace=wrap;rounded=0;container=0;" vertex="1" parent="1">
          <mxGeometry x="209.86" y="208" width="210.14" height="20" as="geometry" />
        </mxCell>
        <mxCell id="HXRdN1SDrOyEm4HGrO3o-16" value="&lt;font style=&quot;font-size: 9px;&quot;&gt;&lt;b&gt;Vérifier les informations()&lt;/b&gt;&lt;/font&gt;" style="html=1;align=left;spacingLeft=2;endArrow=block;rounded=0;edgeStyle=orthogonalEdgeStyle;curved=0;rounded=0;" edge="1" parent="1">
          <mxGeometry relative="1" as="geometry">
            <mxPoint x="471" y="303" as="sourcePoint" />
            <Array as="points">
              <mxPoint x="471" y="309" />
              <mxPoint x="493" y="309" />
              <mxPoint x="493" y="322" />
            </Array>
            <mxPoint x="480.9" y="322" as="targetPoint" />
          </mxGeometry>
        </mxCell>
        <mxCell id="HXRdN1SDrOyEm4HGrO3o-17" value="" style="html=1;points=[[0,0,0,0,5],[0,1,0,0,-5],[1,0,0,0,5],[1,1,0,0,-5]];perimeter=orthogonalPerimeter;outlineConnect=0;targetShapes=umlLifeline;portConstraint=eastwest;newEdgeStyle={&quot;curved&quot;:0,&quot;rounded&quot;:0};fillColor=light-dark(#FFFFFF,#FFFFFF);strokeColor=light-dark(#000000,#000000);container=0;" vertex="1" parent="1">
          <mxGeometry x="471" y="301" width="10" height="25" as="geometry" />
        </mxCell>
        <mxCell id="HXRdN1SDrOyEm4HGrO3o-18" value="Opt" style="shape=umlFrame;whiteSpace=wrap;html=1;pointerEvents=0;" vertex="1" parent="1">
          <mxGeometry x="61" y="557" width="612" height="128" as="geometry" />
        </mxCell>
        <mxCell id="HXRdN1SDrOyEm4HGrO3o-19" value="&lt;b&gt;[Informations correcte]&lt;/b&gt;" style="text;html=1;align=center;verticalAlign=middle;whiteSpace=wrap;rounded=0;" vertex="1" parent="1">
          <mxGeometry x="251.5" y="370" width="139" height="20" as="geometry" />
        </mxCell>
        <mxCell id="HXRdN1SDrOyEm4HGrO3o-20" value="" style="endArrow=open;html=1;rounded=0;strokeColor=light-dark(#000000,#000000);dashed=1;strokeWidth=1;endFill=0;" edge="1" parent="1">
          <mxGeometry width="50" height="50" relative="1" as="geometry">
            <mxPoint x="460" y="613" as="sourcePoint" />
            <mxPoint x="210" y="613" as="targetPoint" />
          </mxGeometry>
        </mxCell>
        <mxCell id="HXRdN1SDrOyEm4HGrO3o-21" value="&lt;font style=&quot;color: light-dark(rgb(0, 0, 0), rgb(0, 0, 0)); font-size: 9px;&quot;&gt;&lt;b&gt;Authentification réussie()&lt;/b&gt;&lt;/font&gt;" style="text;html=1;align=center;verticalAlign=middle;whiteSpace=wrap;rounded=0;" vertex="1" parent="1">
          <mxGeometry x="233.5" y="390" width="159" height="17" as="geometry" />
        </mxCell>
        <mxCell id="HXRdN1SDrOyEm4HGrO3o-33" value="" style="html=1;points=[[0,0,0,0,5],[0,1,0,0,-5],[1,0,0,0,5],[1,1,0,0,-5]];perimeter=orthogonalPerimeter;outlineConnect=0;targetShapes=umlLifeline;portConstraint=eastwest;newEdgeStyle={&quot;curved&quot;:0,&quot;rounded&quot;:0};fillColor=light-dark(#FFFFFF,#FFFFFF);strokeColor=light-dark(#000000,#000000);" vertex="1" parent="1">
          <mxGeometry x="461" y="163" width="10" height="29" as="geometry" />
        </mxCell>
        <mxCell id="HXRdN1SDrOyEm4HGrO3o-34" value="" style="html=1;points=[[0,0,0,0,5],[0,1,0,0,-5],[1,0,0,0,5],[1,1,0,0,-5]];perimeter=orthogonalPerimeter;outlineConnect=0;targetShapes=umlLifeline;portConstraint=eastwest;newEdgeStyle={&quot;curved&quot;:0,&quot;rounded&quot;:0};fillColor=light-dark(#FFFFFF,#FFFFFF);strokeColor=light-dark(#000000,#000000);container=0;" vertex="1" parent="1">
          <mxGeometry x="462" y="256" width="10" height="17" as="geometry" />
        </mxCell>
        <mxCell id="HXRdN1SDrOyEm4HGrO3o-35" value="" style="html=1;points=[[0,0,0,0,5],[0,1,0,0,-5],[1,0,0,0,5],[1,1,0,0,-5]];perimeter=orthogonalPerimeter;outlineConnect=0;targetShapes=umlLifeline;portConstraint=eastwest;newEdgeStyle={&quot;curved&quot;:0,&quot;rounded&quot;:0};fillColor=light-dark(#FFFFFF,#FFFFFF);strokeColor=light-dark(#000000,#000000);container=0;" vertex="1" parent="1">
          <mxGeometry x="462.5" y="290" width="10" height="44" as="geometry" />
        </mxCell>
        <mxCell id="HXRdN1SDrOyEm4HGrO3o-36" value="" style="html=1;points=[[0,0,0,0,5],[0,1,0,0,-5],[1,0,0,0,5],[1,1,0,0,-5]];perimeter=orthogonalPerimeter;outlineConnect=0;targetShapes=umlLifeline;portConstraint=eastwest;newEdgeStyle={&quot;curved&quot;:0,&quot;rounded&quot;:0};fillColor=light-dark(#FFFFFF,#FFFFFF);strokeColor=light-dark(#000000,#000000);" vertex="1" parent="1">
          <mxGeometry x="461" y="612" width="10" height="38" as="geometry" />
        </mxCell>
        <mxCell id="HXRdN1SDrOyEm4HGrO3o-48" value="" style="html=1;points=[[0,0,0,0,5],[0,1,0,0,-5],[1,0,0,0,5],[1,1,0,0,-5]];perimeter=orthogonalPerimeter;outlineConnect=0;targetShapes=umlLifeline;portConstraint=eastwest;newEdgeStyle={&quot;curved&quot;:0,&quot;rounded&quot;:0};fillColor=light-dark(#FFFFFF,#FFFFFF);strokeColor=light-dark(#000000,#000000);" vertex="1" parent="1">
          <mxGeometry x="198.5" y="407" width="10" height="27" as="geometry" />
        </mxCell>
        <mxCell id="HXRdN1SDrOyEm4HGrO3o-49" value="Alt" style="shape=umlFrame;whiteSpace=wrap;html=1;pointerEvents=0;" vertex="1" parent="1">
          <mxGeometry x="73.5" y="366" width="588" height="161" as="geometry" />
        </mxCell>
        <mxCell id="HXRdN1SDrOyEm4HGrO3o-50" value="&lt;font&gt;&lt;b style=&quot;color: light-dark(rgb(0, 0, 0), rgb(237, 237, 237));&quot;&gt;[tentative&lt;/b&gt;&lt;span style=&quot;font-family: Consolas, &amp;quot;Courier New&amp;quot;, monospace; font-size: 14px; white-space: pre;&quot;&gt;&lt;font style=&quot;color: light-dark(rgb(0, 0, 0), rgb(0, 0, 0));&quot;&gt;&amp;gt;&lt;/font&gt;&lt;/span&gt;&lt;b style=&quot;color: light-dark(rgb(0, 0, 0), rgb(237, 237, 237)); background-color: transparent;&quot;&gt;3]&lt;/b&gt;&lt;/font&gt;" style="text;html=1;align=center;verticalAlign=middle;whiteSpace=wrap;rounded=0;" vertex="1" parent="1">
          <mxGeometry x="251.5" y="563" width="139" height="20" as="geometry" />
        </mxCell>
        <mxCell id="HXRdN1SDrOyEm4HGrO3o-51" value="" style="endArrow=open;html=1;rounded=0;strokeColor=light-dark(#000000,#000000);dashed=1;strokeWidth=1;endFill=0;" edge="1" parent="1">
          <mxGeometry width="50" height="50" relative="1" as="geometry">
            <mxPoint x="459.5" y="410" as="sourcePoint" />
            <mxPoint x="209.5" y="410" as="targetPoint" />
          </mxGeometry>
        </mxCell>
        <mxCell id="HXRdN1SDrOyEm4HGrO3o-52" value="&lt;font style=&quot;color: light-dark(rgb(0, 0, 0), rgb(0, 0, 0)); font-size: 9px;&quot;&gt;&lt;b&gt;4:Accès bloqué()&lt;/b&gt;&lt;/font&gt;" style="text;html=1;align=center;verticalAlign=middle;whiteSpace=wrap;rounded=0;" vertex="1" parent="1">
          <mxGeometry x="246" y="592" width="159" height="17" as="geometry" />
        </mxCell>
        <mxCell id="HXRdN1SDrOyEm4HGrO3o-53" value="" style="line;strokeWidth=1;fillColor=none;align=left;verticalAlign=middle;spacingTop=-1;spacingLeft=3;spacingRight=3;rotatable=0;labelPosition=right;points=[];portConstraint=eastwest;strokeColor=inherit;dashed=1;" vertex="1" parent="1">
          <mxGeometry x="74.5" y="446" width="587" height="8" as="geometry" />
        </mxCell>
        <mxCell id="HXRdN1SDrOyEm4HGrO3o-54" value="[else]" style="text;html=1;align=center;verticalAlign=middle;whiteSpace=wrap;rounded=0;" vertex="1" parent="1">
          <mxGeometry x="81.5" y="428" width="46" height="20" as="geometry" />
        </mxCell>
        <mxCell id="HXRdN1SDrOyEm4HGrO3o-55" value="" style="html=1;points=[[0,0,0,0,5],[0,1,0,0,-5],[1,0,0,0,5],[1,1,0,0,-5]];perimeter=orthogonalPerimeter;outlineConnect=0;targetShapes=umlLifeline;portConstraint=eastwest;newEdgeStyle={&quot;curved&quot;:0,&quot;rounded&quot;:0};fillColor=light-dark(#FFFFFF,#FFFFFF);strokeColor=light-dark(#000000,#000000);" vertex="1" parent="1">
          <mxGeometry x="197.5" y="484" width="10" height="27" as="geometry" />
        </mxCell>
        <mxCell id="HXRdN1SDrOyEm4HGrO3o-56" value="" style="endArrow=open;html=1;rounded=0;strokeColor=light-dark(#000000,#000000);dashed=1;strokeWidth=1;endFill=0;" edge="1" parent="1">
          <mxGeometry width="50" height="50" relative="1" as="geometry">
            <mxPoint x="458.36" y="486" as="sourcePoint" />
            <mxPoint x="208.36" y="486" as="targetPoint" />
          </mxGeometry>
        </mxCell>
        <mxCell id="HXRdN1SDrOyEm4HGrO3o-57" value="" style="html=1;points=[[0,0,0,0,5],[0,1,0,0,-5],[1,0,0,0,5],[1,1,0,0,-5]];perimeter=orthogonalPerimeter;outlineConnect=0;targetShapes=umlLifeline;portConstraint=eastwest;newEdgeStyle={&quot;curved&quot;:0,&quot;rounded&quot;:0};fillColor=light-dark(#FFFFFF,#FFFFFF);strokeColor=light-dark(#000000,#000000);" vertex="1" parent="1">
          <mxGeometry x="462" y="473" width="10" height="38" as="geometry" />
        </mxCell>
        <mxCell id="HXRdN1SDrOyEm4HGrO3o-58" value="" style="html=1;points=[[0,0,0,0,5],[0,1,0,0,-5],[1,0,0,0,5],[1,1,0,0,-5]];perimeter=orthogonalPerimeter;outlineConnect=0;targetShapes=umlLifeline;portConstraint=eastwest;newEdgeStyle={&quot;curved&quot;:0,&quot;rounded&quot;:0};fillColor=light-dark(#FFFFFF,#FFFFFF);strokeColor=light-dark(#000000,#000000);" vertex="1" parent="1">
          <mxGeometry x="460.5" y="409" width="10" height="38" as="geometry" />
        </mxCell>
        <mxCell id="HXRdN1SDrOyEm4HGrO3o-61" value="&lt;font style=&quot;color: light-dark(rgb(0, 0, 0), rgb(0, 0, 0)); font-size: 9px;&quot;&gt;&lt;b&gt;Authentification refuser()&lt;/b&gt;&lt;/font&gt;" style="text;html=1;align=center;verticalAlign=middle;whiteSpace=wrap;rounded=0;" vertex="1" parent="1">
          <mxGeometry x="239" y="465" width="159" height="17" as="geometry" />
        </mxCell>
      </root>
    </mxGraphModel>
  </diagram>
</mxfile>
